<?xml version="1.0" encoding="utf-8"?>
<!-- Generator: Adobe Illustrator 24.0.1, SVG Export Plug-In . SVG Version: 6.00 Build 0)  -->
<svg version="1.1" id="Layer_1" xmlns="http://www.w3.org/2000/svg" xmlns:xlink="http://www.w3.org/1999/xlink" x="0px" y="0px"
	 width="16.8739014px" height="16.8747559px" viewBox="0 0 16.8739014 16.8747559"
	 style="enable-background:new 0 0 16.8739014 16.8747559;" xml:space="preserve">
<style type="text/css">
	.st0{enable-background:new    ;}
	.st1{fill:#FFFFFF;}
</style>
<title>times</title>
<desc>Created with Sketch.</desc>
<g id="Symbols">
	<g id="Components_x2F_Buttons_x2F_ChatBot-Times" transform="translate(-19.000000, -19.000000)">
		<g id="Group" transform="translate(0.000000, -1.000000)">
			<g class="st0">
				<path class="st1" d="M35.7508545,34.9609375c0.1640625,0.1650391,0.1640625,0.4326172,0,0.5966797l-1.1933594,1.1933594
					c-0.1640625,0.1650391-0.4316406,0.1650391-0.5957031,0l-1.1162109-1.1152344l-5.4082031-5.4082031l-6.5244141,6.5234375
					c-0.1645508,0.1650391-0.4316406,0.1650391-0.5961914,0l-1.1933594-1.1933594
					c-0.1645508-0.1640625-0.1645508-0.4316406,0-0.5966797L25.6473389,28.4375l-6.5239258-6.5244141
					c-0.1645508-0.1640625-0.1645508-0.4316406,0-0.5966797l1.1938477-1.1933594
					c0.1645508-0.1640625,0.4316406-0.1640625,0.5961914,0l6.5239258,6.5244141l6.5244141-6.5234375
					c0.1640625-0.1650391,0.4316406-0.1650391,0.5957031,0l1.1933594,1.1933594
					c0.1640625,0.1640625,0.1640625,0.4316406,0,0.5966797l-1.1152344,1.1152344L29.227417,28.4375L35.7508545,34.9609375z"/>
			</g>
		</g>
	</g>
</g>
</svg>
