<?xml version="1.0" encoding="utf-8"?>
<!-- Generator: Adobe Illustrator 24.0.1, SVG Export Plug-In . SVG Version: 6.00 Build 0)  -->
<svg version="1.1" id="Layer_1" xmlns="http://www.w3.org/2000/svg" xmlns:xlink="http://www.w3.org/1999/xlink" x="0px" y="0px"
	 width="27px" height="27px" viewBox="0 0 27 27" style="enable-background:new 0 0 27 27;" xml:space="preserve">
<style type="text/css">
	.st0{enable-background:new    ;}
	.st1{fill:#FFFFFF;}
</style>
<title>comment-alt-dots</title>
<desc>Created with Sketch.</desc>
<g id="Symbols">
	<g id="Components_x2F_Buttons_x2F_ChatBot-Default" transform="translate(-14.000000, -15.000000)">
		<g id="Group">
			<g class="st0">
				<path class="st1" d="M41,18.375v15.1875c0,1.8613281-1.5136719,3.375-3.375,3.375h-7.59375l-6.5864258,4.9355469
					C23.3286133,41.9628906,23.1967773,42,23.0703125,42C22.7431641,42,22.4375,41.7412109,22.4375,41.3671875V36.9375H17.375
					c-1.8613281,0-3.375-1.5136719-3.375-3.375V18.375C14,16.5136719,15.5136719,15,17.375,15h20.25
					C39.4863281,15,41,16.5136719,41,18.375z M39.3125,18.375c0-0.9277344-0.7597656-1.6875-1.6875-1.6875h-20.25
					c-0.9282227,0-1.6875,0.7597656-1.6875,1.6875v15.1875c0,0.9277344,0.7592773,1.6875,1.6875,1.6875h6.75v4.0078125
					l4.8935547-3.6699219L29.4667969,35.25H37.625c0.9277344,0,1.6875-0.7597656,1.6875-1.6875V18.375z M22.015625,25.96875
					c0,0.7011719-0.5644531,1.265625-1.265625,1.265625s-1.265625-0.5644531-1.265625-1.265625
					s0.5644531-1.265625,1.265625-1.265625S22.015625,25.2675781,22.015625,25.96875z M28.765625,25.96875
					c0,0.7011719-0.5644531,1.265625-1.265625,1.265625s-1.265625-0.5644531-1.265625-1.265625S26.7988281,24.703125,27.5,24.703125
					S28.765625,25.2675781,28.765625,25.96875z M35.515625,25.96875c0,0.7011719-0.5644531,1.265625-1.265625,1.265625
					s-1.265625-0.5644531-1.265625-1.265625s0.5644531-1.265625,1.265625-1.265625S35.515625,25.2675781,35.515625,25.96875z"/>
			</g>
		</g>
	</g>
</g>
</svg>
